<svg width="32" height="32" viewBox="0 0 32 32" xmlns="http://www.w3.org/2000/svg">
    <defs>
        <linearGradient id="grad" x1="0%" y1="0%" x2="100%" y2="100%">
            <stop offset="0%" style="stop-color:#D09683;stop-opacity:1" />
            <stop offset="50%" style="stop-color:#FFFFFF;stop-opacity:0.9" />
            <stop offset="100%" style="stop-color:#330000;stop-opacity:1" />
        </linearGradient>
    </defs>
    <polygon points="16,4 24,8 24,16 16,20 8,16 8,8" fill="url(#grad)"/>
    <polygon points="4,12 8,14 8,18 4,20 0,18 0,14" fill="#FFFFFF" opacity="0.8"/>
    <polygon points="28,12 32,14 32,18 28,20 24,18 24,14" fill="#FFFFFF" opacity="0.8"/>
    <polygon points="16,24 20,26 20,30 16,32 12,30 12,26" fill="url(#grad)" opacity="0.6"/>
    <line x1="8" y1="16" x2="8" y2="14" stroke="#FFFFFF" stroke-width="1"/>
    <line x1="24" y1="16" x2="24" y2="14" stroke="#FFFFFF" stroke-width="1"/>
    <circle cx="16" cy="12" r="2" fill="#330000"/>
    <circle cx="4" cy="16" r="1.5" fill="#330000"/>
    <circle cx="28" cy="16" r="1.5" fill="#330000"/>
</svg>